<svg width="31" height="35" viewBox="0 0 31 35" fill="none" xmlns="http://www.w3.org/2000/svg">
<path d="M2.48382 33.5118C1.07623 32.4456 0.177521 30.7043 0.177521 28.8566V5.91428C0.177521 2.66523 2.86915 0 6.15597 0H29.7479C30.1995 0 30.5643 0.360647 30.5643 0.807007V27.45C30.5646 27.556 30.5436 27.6611 30.5026 27.7591C30.4617 27.8571 30.4016 27.9462 30.3257 28.0212C30.2498 28.0962 30.1598 28.1557 30.0606 28.1962C29.9614 28.2368 29.8552 28.2575 29.7479 28.2574H8.18492C5.81236 28.2574 3.87054 30.1306 3.78832 32.4558C4.49162 32.9117 5.31489 33.1535 6.15597 33.1512H28.9314V30.1969C28.9314 29.1307 30.5643 29.1307 30.5643 30.1969V33.9638C30.5645 34.0699 30.5435 34.1749 30.5025 34.2729C30.4615 34.3708 30.4014 34.4599 30.3256 34.5348C30.2497 34.6098 30.1596 34.6692 30.0605 34.7097C29.9614 34.7502 29.8551 34.771 29.7479 34.7708H6.15597C4.77457 34.7708 3.50075 34.2986 2.48382 33.5118ZM12.1557 1.61967H6.49509V19.916C9.80849 16.1745 8.87829 16.149 12.1557 19.8962V1.61967Z" fill="white"/>
</svg>
