<svg width="213" height="68" viewBox="0 0 213 68" fill="none" xmlns="http://www.w3.org/2000/svg">
<g clip-path="url(#clip0_23_18)">
<g clip-path="url(#clip1_23_18)">
<g clip-path="url(#clip2_23_18)">
<g clip-path="url(#clip3_23_18)">
<g clip-path="url(#clip4_23_18)">
<g clip-path="url(#clip5_23_18)">
<g clip-path="url(#clip6_23_18)">
<g clip-path="url(#clip7_23_18)">
<path d="M8.04099 43.8345L3.42398 43.916L3.34153 53.002L7.79365 53.0835L12.0809 52.9613L12.3282 53.2872L12.0397 55.7727L7.46387 55.6504L3.30031 55.6912L3.25908 59.073L3.42398 67.2219H0.0848846L0.291001 59.3582L0.0848846 41.1046H14.1421L14.3894 41.4305L14.1008 44.0382L8.04099 43.8345ZM28.7351 64.655L28.9 64.9402L28.6939 67.2219H17.7697L17.8934 61.1102L17.7697 46.9311H20.8615L20.7378 60.8657L20.8202 64.655H28.7351ZM42.1739 46.9311L49.388 67.2219H46.2963L45.7934 65.0217L44.7298 62.0066L39.816 61.9658L35.4545 62.0066L34.3415 64.8587L33.7644 67.2219H30.7138L38.6287 46.9311H42.1739ZM40.0716 59.5619L43.8641 59.5212L40.4343 49.9054H40.1952L36.4439 59.5212L40.0716 59.5619ZM60.5513 46.7274C62.2277 46.7274 63.9042 47.0533 65.5806 47.7052L65.0447 50.7203L64.55 50.8426C63.7805 50.245 63.0522 49.8022 62.3652 49.5143C61.6781 49.2318 60.9636 49.0905 60.2215 49.0905C59.0398 49.0905 58.1054 49.3948 57.4183 50.0032C56.7313 50.6171 56.3878 51.3179 56.3878 52.1056C56.3878 52.8934 56.7258 53.5317 57.4019 54.0206C58.0724 54.5096 59.1085 55.0528 60.5101 55.6504C61.7468 56.1937 62.7307 56.6826 63.4617 57.1172C64.1872 57.5518 64.8193 58.1277 65.358 58.8448C65.8911 59.5673 66.1577 60.4447 66.1577 61.4769C66.1577 62.5363 65.8691 63.5196 65.292 64.4268C64.7149 65.3395 63.8712 66.0729 62.7609 66.627C61.6451 67.1866 60.3177 67.4664 58.7787 67.4664C57.8168 67.4664 56.8082 67.3496 55.7529 67.116C54.6921 66.8878 53.7082 66.5428 52.8013 66.081L53.1723 62.8622L53.5846 62.6992C54.3541 63.4598 55.2555 64.0492 56.2888 64.4676C57.3167 64.8913 58.2703 65.1032 59.1497 65.1032C60.304 65.1032 61.2521 64.7962 61.9941 64.1823C62.7362 63.5739 63.1072 62.8351 63.1072 61.9658C63.1072 61.1509 62.7719 60.499 62.1013 60.0101C61.4253 59.5212 60.3727 58.9507 58.9436 58.2988C57.7619 57.7827 56.7945 57.3074 56.0415 56.8728C55.283 56.4382 54.6426 55.8596 54.1205 55.137C53.5983 54.4199 53.3372 53.5453 53.3372 52.5131C53.3372 51.4266 53.634 50.4487 54.2277 49.5795C54.8158 48.7103 55.654 48.0176 56.7423 47.5015C57.8251 46.9854 59.0948 46.7274 60.5513 46.7274ZM89.2016 46.9311L89.0779 60.8657L89.1603 67.2219H86.1098L86.2335 61.1102L86.1923 58.3396L75.0207 58.3803L74.9795 60.8657L75.0619 67.2219H72.0114L72.1351 61.1102L72.0114 46.9311H75.1032L75.0207 55.6504L80.5859 55.6912L86.1923 55.6504L86.1098 46.9311H89.2016ZM123.994 41.0231L123.788 59.5619L123.87 67.2219H120.408L106.722 46.3199H106.515L106.474 58.6248L106.515 67.2219H103.547L103.671 59.4804L103.589 41.1046H107.01L120.655 62.0066H120.944L120.902 41.2676L123.994 41.0231ZM138.909 46.6866C141.904 46.6866 144.207 47.5558 145.818 49.2943C147.423 51.0327 148.225 53.491 148.225 56.669C148.225 60.1187 147.368 62.7862 145.653 64.6713C143.932 66.5618 141.478 67.5071 138.29 67.5071C135.322 67.5071 133.027 66.6162 131.406 64.8343C129.785 63.0578 128.974 60.5262 128.974 57.2395C128.974 53.8712 129.84 51.269 131.571 49.4328C133.302 47.602 135.748 46.6866 138.909 46.6866ZM138.62 49.2535C136.449 49.2535 134.836 49.8647 133.781 51.087C132.72 52.3094 132.189 54.2379 132.189 56.8728C132.189 59.6977 132.711 61.7485 133.756 63.0252C134.8 64.3019 136.394 64.9402 138.538 64.9402C140.736 64.9402 142.371 64.3154 143.443 63.0659C144.515 61.8164 145.051 59.8607 145.051 57.1987C145.051 54.4552 144.523 52.4452 143.468 51.1685C142.407 49.8918 140.791 49.2535 138.62 49.2535ZM169.703 46.9311L169.579 57.2395V60.1731C169.606 62.4819 168.9 64.2747 167.46 65.5514C166.014 66.828 163.945 67.4664 161.252 67.4664C158.586 67.4664 156.552 66.8362 155.151 65.5758C153.749 64.31 153.076 62.5091 153.131 60.1731L153.172 57.0765L153.131 46.9311H156.223L156.058 59.6841C156.03 61.3954 156.464 62.6857 157.36 63.5549C158.251 64.4241 159.589 64.8587 161.375 64.8587C163.134 64.8587 164.467 64.4241 165.374 63.5549C166.281 62.6857 166.721 61.3954 166.693 59.6841L166.57 46.9311H169.703ZM193.571 46.8496L193.447 61.1509L193.488 67.2219H190.191L179.39 51.7389H179.184L179.143 60.4583L179.225 67.2219H176.422L176.546 61.2324L176.463 46.9311H179.72L190.52 62.414H190.809L190.726 47.0533L193.571 46.8496ZM207.051 46.7274C208.727 46.7274 210.404 47.0533 212.08 47.7052L211.544 50.7203L211.05 50.8426C210.28 50.245 209.552 49.8022 208.865 49.5143C208.178 49.2318 207.463 49.0905 206.721 49.0905C205.539 49.0905 204.605 49.3948 203.918 50.0032C203.231 50.6171 202.887 51.3179 202.887 52.1056C202.887 52.8934 203.223 53.5317 203.893 54.0206C204.569 54.5096 205.608 55.0528 207.01 55.6504C208.246 56.1937 209.228 56.6826 209.953 57.1172C210.684 57.5518 211.316 58.1277 211.849 58.8448C212.388 59.5673 212.657 60.4447 212.657 61.4769C212.657 62.5363 212.369 63.5196 211.792 64.4268C211.214 65.3395 210.368 66.0729 209.252 66.627C208.142 67.1866 206.817 67.4664 205.278 67.4664C204.316 67.4664 203.305 67.3496 202.244 67.116C201.189 66.8878 200.208 66.5428 199.301 66.081L199.672 62.8622L200.084 62.6992C200.854 63.4598 201.752 64.0492 202.78 64.4676C203.814 64.8913 204.77 65.1032 205.649 65.1032C206.804 65.1032 207.752 64.7962 208.494 64.1823C209.236 63.5739 209.607 62.8351 209.607 61.9658C209.607 61.1509 209.269 60.499 208.593 60.0101C207.922 59.5212 206.872 58.9507 205.443 58.2988C204.261 57.7827 203.291 57.3074 202.533 56.8728C201.78 56.4382 201.142 55.8596 200.62 55.137C200.098 54.4199 199.837 53.5453 199.837 52.5131C199.837 51.4266 200.131 50.4487 200.719 49.5795C201.313 48.7103 202.151 48.0176 203.234 47.5015C204.322 46.9854 205.594 46.7274 207.051 46.7274Z" fill="white"/>
</g>
</g>
</g>
</g>
<g clip-path="url(#clip8_23_18)">
<g clip-path="url(#clip9_23_18)">
<path d="M93.4838 33.5118C92.0762 32.4456 91.1775 30.7043 91.1775 28.8566V5.91428C91.1775 2.66523 93.8692 0 97.156 0H120.748C121.199 0 121.564 0.360647 121.564 0.807007V27.45C121.565 27.556 121.544 27.6611 121.503 27.7591C121.462 27.8571 121.402 27.9462 121.326 28.0212C121.25 28.0962 121.16 28.1557 121.061 28.1962C120.961 28.2368 120.855 28.2575 120.748 28.2574H99.1849C96.8124 28.2574 94.8705 30.1306 94.7883 32.4558C95.4916 32.9117 96.3149 33.1535 97.156 33.1512H119.931V30.1969C119.931 29.1307 121.564 29.1307 121.564 30.1969V33.9638C121.565 34.0699 121.543 34.1749 121.503 34.2729C121.462 34.3708 121.401 34.4599 121.326 34.5348C121.25 34.6098 121.16 34.6692 121.06 34.7097C120.961 34.7502 120.855 34.771 120.748 34.7708H97.156C95.7746 34.7708 94.5007 34.2986 93.4838 33.5118ZM103.156 1.61967H97.4951V19.916C100.808 16.1745 99.8783 16.149 103.156 19.8962V1.61967Z" fill="white"/>
</g>
</g>
<path d="M212.665 31.8512H125.864V34.2396H212.665V31.8512Z" fill="white"/>
<path d="M86.8776 31.8512H0.0764618V34.2396H86.8776V31.8512Z" fill="white"/>
<path d="M212.665 27.0745H125.864V29.4629H212.665V27.0745Z" fill="white"/>
<path d="M86.8776 27.0745H0.0764618V29.4629H86.8776V27.0745Z" fill="white"/>
</g>
</g>
</g>
</g>
<defs>
<clipPath id="clip0_23_18">
<rect width="213" height="68" fill="white"/>
</clipPath>
<clipPath id="clip1_23_18">
<rect width="213" height="68" fill="white" transform="translate(-0.129089 -0.24646)"/>
</clipPath>
<clipPath id="clip2_23_18">
<rect width="212.589" height="67.5071" fill="white" transform="translate(0.0764618)"/>
</clipPath>
<clipPath id="clip3_23_18">
<rect width="212.589" height="67.5071" fill="white" transform="translate(0.0764618)"/>
</clipPath>
<clipPath id="clip4_23_18">
<rect width="212.589" height="26.484" fill="white" transform="translate(0.0764618 41.0231)"/>
</clipPath>
<clipPath id="clip5_23_18">
<rect width="212.589" height="26.484" fill="white" transform="translate(0.0764618 41.0231)"/>
</clipPath>
<clipPath id="clip6_23_18">
<rect width="212.589" height="26.484" fill="white" transform="translate(0.0764618 41.0231)"/>
</clipPath>
<clipPath id="clip7_23_18">
<rect width="212.589" height="26.484" fill="white" transform="translate(0.0764618 41.0231)"/>
</clipPath>
<clipPath id="clip8_23_18">
<rect width="38.9867" height="34.7708" fill="white" transform="translate(86.8776)"/>
</clipPath>
<clipPath id="clip9_23_18">
<rect width="30.3868" height="34.7708" fill="white" transform="translate(91.1775)"/>
</clipPath>
</defs>
</svg>
