<svg width="1440" height="1092" viewBox="0 0 1440 1092" fill="none" xmlns="http://www.w3.org/2000/svg">
<g clip-path="url(#clip0_33_155)">
<path d="M1440 0H0V1092H1440V0Z" fill="#FFFAD7"/>
<path d="M1061 1086C1122.3 1086 1172 1036.3 1172 975C1172 913.696 1122.3 864 1061 864C999.696 864 950 913.696 950 975C950 1036.3 999.696 1086 1061 1086Z" stroke="#E97777" stroke-width="2"/>
<path d="M120 881C131.046 881 140 872.046 140 861C140 849.954 131.046 841 120 841C108.954 841 100 849.954 100 861C100 872.046 108.954 881 120 881Z" stroke="#E97777" stroke-width="2"/>
<path d="M1421 415C1455.79 415 1484 386.794 1484 352C1484 317.206 1455.79 289 1421 289C1386.21 289 1358 317.206 1358 352C1358 386.794 1386.21 415 1421 415Z" stroke="#E97777" stroke-width="2"/>
<path d="M661 666C715.676 666 760 621.676 760 567C760 512.324 715.676 468 661 468C606.324 468 562 512.324 562 567C562 621.676 606.324 666 661 666Z" stroke="#E97777" stroke-width="2"/>
<path d="M34 156C79.2874 156 116 119.287 116 74C116 28.7127 79.2874 -8 34 -8C-11.2873 -8 -48 28.7127 -48 74C-48 119.287 -11.2873 156 34 156Z" stroke="#E97777" stroke-width="2"/>
<path d="M1391 1157C1448.99 1157 1496 1109.99 1496 1052C1496 994.01 1448.99 947 1391 947C1333.01 947 1286 994.01 1286 1052C1286 1109.99 1333.01 1157 1391 1157Z" stroke="#E97777" stroke-width="2"/>
<path d="M411 588C451.869 588 485 554.869 485 514C485 473.131 451.869 440 411 440C370.131 440 337 473.131 337 514C337 554.869 370.131 588 411 588Z" stroke="#E97777" stroke-width="2"/>
<path d="M1054 440C1110.33 440 1156 394.333 1156 338C1156 281.667 1110.33 236 1054 236C997.667 236 952 281.667 952 338C952 394.333 997.667 440 1054 440Z" stroke="#E97777" stroke-width="2"/>
<path d="M761 300C816.781 300 862 254.781 862 199C862 143.219 816.781 98 761 98C705.219 98 660 143.219 660 199C660 254.781 705.219 300 761 300Z" stroke="#E97777" stroke-width="2"/>
<path d="M71 684C101.928 684 127 658.928 127 628C127 597.072 101.928 572 71 572C40.0721 572 15 597.072 15 628C15 658.928 40.0721 684 71 684Z" stroke="#E97777" stroke-width="2"/>
<path d="M718 940C748.928 940 774 914.928 774 884C774 853.072 748.928 828 718 828C687.072 828 662 853.072 662 884C662 914.928 687.072 940 718 940Z" stroke="#E97777" stroke-width="2"/>
<path d="M911 136C970.094 136 1018 88.0945 1018 29C1018 -30.0945 970.094 -78 911 -78C851.906 -78 804 -30.0945 804 29C804 88.0945 851.906 136 911 136Z" stroke="#E97777" stroke-width="2"/>
<path d="M363 1098C406.63 1098 442 1062.63 442 1019C442 975.37 406.63 940 363 940C319.37 940 284 975.37 284 1019C284 1062.63 319.37 1098 363 1098Z" stroke="#E97777" stroke-width="2"/>
<path d="M1416 676C1435.33 676 1451 660.33 1451 641C1451 621.67 1435.33 606 1416 606C1396.67 606 1381 621.67 1381 641C1381 660.33 1396.67 676 1416 676Z" stroke="#E97777" stroke-width="2"/>
<path d="M1412 206C1465.02 206 1508 163.019 1508 110C1508 56.9807 1465.02 14 1412 14C1358.98 14 1316 56.9807 1316 110C1316 163.019 1358.98 206 1412 206Z" stroke="#E97777" stroke-width="2"/>
<path d="M1025 765C1046.54 765 1064 747.539 1064 726C1064 704.461 1046.54 687 1025 687C1003.46 687 986 704.461 986 726C986 747.539 1003.46 765 1025 765Z" stroke="#E97777" stroke-width="2"/>
<path d="M24 398C69.2874 398 106 361.287 106 316C106 270.713 69.2874 234 24 234C-21.2873 234 -58 270.713 -58 316C-58 361.287 -21.2873 398 24 398Z" stroke="#E97777" stroke-width="2"/>
<path d="M390 292C409.882 292 426 275.882 426 256C426 236.118 409.882 220 390 220C370.118 220 354 236.118 354 256C354 275.882 370.118 292 390 292Z" stroke="#E97777" stroke-width="2"/>
<path d="M1142 221C1193.91 221 1236 178.915 1236 127C1236 75.0852 1193.91 33 1142 33C1090.09 33 1048 75.0852 1048 127C1048 178.915 1090.09 221 1142 221Z" stroke="#E97777" stroke-width="2"/>
<path d="M483 861C522.765 861 555 828.765 555 789C555 749.235 522.765 717 483 717C443.235 717 411 749.235 411 789C411 828.765 443.235 861 483 861Z" stroke="#E97777" stroke-width="2"/>
<path d="M1266 895C1292.51 895 1314 873.51 1314 847C1314 820.49 1292.51 799 1266 799C1239.49 799 1218 820.49 1218 847C1218 873.51 1239.49 895 1266 895Z" stroke="#E97777" stroke-width="2"/>
<path d="M265 118C306.974 118 341 83.9736 341 42C341 0.0263596 306.974 -34 265 -34C223.026 -34 189 0.0263596 189 42C189 83.9736 223.026 118 265 118Z" stroke="#E97777" stroke-width="2"/>
<path d="M555 93C603.049 93 642 54.0488 642 6C642 -42.0488 603.049 -81 555 -81C506.951 -81 468 -42.0488 468 6C468 54.0488 506.951 93 555 93Z" stroke="#E97777" stroke-width="2"/>
<path d="M1176 589C1201.41 589 1222 568.405 1222 543C1222 517.595 1201.41 497 1176 497C1150.59 497 1130 517.595 1130 543C1130 568.405 1150.59 589 1176 589Z" stroke="#E97777" stroke-width="2"/>
<path d="M145 1123C163.778 1123 179 1107.78 179 1089C179 1070.22 163.778 1055 145 1055C126.222 1055 111 1070.22 111 1089C111 1107.78 126.222 1123 145 1123Z" stroke="#E97777" stroke-width="2"/>
<path d="M867 490C881.359 490 893 478.359 893 464C893 449.641 881.359 438 867 438C852.641 438 841 449.641 841 464C841 478.359 852.641 490 867 490Z" stroke="#E97777" stroke-width="2"/>
<path d="M614 1129C637.196 1129 656 1110.2 656 1087C656 1063.8 637.196 1045 614 1045C590.804 1045 572 1063.8 572 1087C572 1110.2 590.804 1129 614 1129Z" stroke="#E97777" stroke-width="2"/>
</g>
<defs>
<clipPath id="clip0_33_155">
<rect width="1440" height="1092" fill="white"/>
</clipPath>
</defs>
</svg>
