<svg id="visual" viewBox="0 0 1440 1280" width="1440" height="1280" xmlns="http://www.w3.org/2000/svg" xmlns:xlink="http://www.w3.org/1999/xlink" version="1.1"><rect x="0" y="0" width="1440" height="1280" fill="#FFFAD7"></rect><g fill="none" stroke="#E97777" stroke-width="2"><circle r="109" cx="129" cy="1101"></circle><circle r="47" cx="607" cy="916"></circle><circle r="58" cx="430" cy="1049"></circle><circle r="77" cx="321" cy="797"></circle><circle r="89" cx="428" cy="301"></circle><circle r="95" cx="1192" cy="722"></circle><circle r="72" cx="1120" cy="309"></circle><circle r="67" cx="915" cy="996"></circle><circle r="85" cx="1043" cy="557"></circle><circle r="106" cx="879" cy="706"></circle><circle r="73" cx="793" cy="237"></circle><circle r="99" cx="553" cy="562"></circle><circle r="103" cx="1271" cy="140"></circle><circle r="81" cx="1237" cy="1128"></circle><circle r="88" cx="144" cy="585"></circle><circle r="62" cx="1302" cy="522"></circle><circle r="98" cx="203" cy="365"></circle><circle r="47" cx="843" cy="453"></circle><circle r="53" cx="161" cy="130"></circle><circle r="81" cx="672" cy="1142"></circle><circle r="59" cx="981" cy="117"></circle><circle r="79" cx="1328" cy="917"></circle><circle r="58" cx="577" cy="127"></circle></g></svg>