<svg id="visual" viewBox="0 0 1440 1280" width="1440" height="1280" xmlns="http://www.w3.org/2000/svg" xmlns:xlink="http://www.w3.org/1999/xlink" version="1.1"><rect width="1440" height="1280" fill="#FFFAD7"></rect><g><g transform="translate(1035 647)"><path d="M0 -137.3L137.3 0L0 137.3L-137.3 0Z" stroke="#E97777" fill="none" stroke-width="2"></path></g><g transform="translate(731 449)"><path d="M0 -122L122 0L0 122L-122 0Z" stroke="#E97777" fill="none" stroke-width="2"></path></g><g transform="translate(574 1110)"><path d="M0 -99L99 0L0 99L-99 0Z" stroke="#E97777" fill="none" stroke-width="2"></path></g><g transform="translate(316 480)"><path d="M0 -76L76 0L0 76L-76 0Z" stroke="#E97777" fill="none" stroke-width="2"></path></g><g transform="translate(1039 185)"><path d="M0 -58L58 0L0 58L-58 0Z" stroke="#E97777" fill="none" stroke-width="2"></path></g><g transform="translate(148 843)"><path d="M0 -131L131 0L0 131L-131 0Z" stroke="#E97777" fill="none" stroke-width="2"></path></g><g transform="translate(1089 1109)"><path d="M0 -136L136 0L0 136L-136 0Z" stroke="#E97777" fill="none" stroke-width="2"></path></g><g transform="translate(1259 399)"><path d="M0 -62L62 0L0 62L-62 0Z" stroke="#E97777" fill="none" stroke-width="2"></path></g><g transform="translate(326 190)"><path d="M0 -97L97 0L0 97L-97 0Z" stroke="#E97777" fill="none" stroke-width="2"></path></g><g transform="translate(756 881)"><path d="M0 -58L58 0L0 58L-58 0Z" stroke="#E97777" fill="none" stroke-width="2"></path></g><g transform="translate(1297 814)"><path d="M0 -133L133 0L0 133L-133 0Z" stroke="#E97777" fill="none" stroke-width="2"></path></g><g transform="translate(494 724)"><path d="M0 -113L113 0L0 113L-113 0Z" stroke="#E97777" fill="none" stroke-width="2"></path></g><g transform="translate(624 167)"><path d="M0 -99L99 0L0 99L-99 0Z" stroke="#E97777" fill="none" stroke-width="2"></path></g><g transform="translate(183 1124)"><path d="M0 -96L96 0L0 96L-96 0Z" stroke="#E97777" fill="none" stroke-width="2"></path></g></g></svg>